<!DOCTYPE svg PUBLIC "-//W3C//DTD SVG 1.1//EN" "http://www.w3.org/Graphics/SVG/1.1/DTD/svg11.dtd" [
	<!ENTITY ns_flows "http://ns.adobe.com/Flows/1.0/">
]><svg xmlns="http://www.w3.org/2000/svg" width="100" height="100"><path fill="#fff" d="M94.726 21.387c3.517 1.304 5.274 3.847 5.274 7.627v62.578c0 1.046-.196 2.087-.587 3.129-1.303 3.52-3.906 5.28-7.813 5.28h-83.202c-1.043 0-2.085-.196-3.125-.587-3.517-1.301-5.273-3.912-5.273-7.823v-62.577c0-.91.194-1.888.585-2.934 1.432-3.52 4.034-5.28 7.813-5.28h41.602c1.172.131 1.886.782 2.148 1.956-.131 1.173-.85 1.891-2.148 2.151h-41.602c-.39 0-.781.068-1.171.196-2.085.655-3.125 1.956-3.125 3.911v4.302h12.498v54.169h-12.499v4.106c0 .264.063.587.194.978.392 2.22 1.758 3.324 4.103 3.324h83.203c.261 0 .586-.064.977-.195 2.214-.391 3.32-1.76 3.32-4.106v-62.578c0-.26-.066-.519-.194-.782-.522-2.216-1.89-3.325-4.103-3.325-1.044-.127-1.693-.847-1.953-2.151.128-1.042.781-1.692 1.953-1.956 1.041 0 2.082.196 3.125.587zm-90.625 45.173h8.398v-12.516h-8.398v12.516zm8.398 16.817v-12.514h-8.398v12.515h8.398zm-8.398-45.955v12.516h8.398v-12.516h-8.398zm20.899-4.106v54.169h62.499v-54.169h-4.101c-1.172-.128-1.89-.847-2.148-2.151.127-1.173.846-1.887 2.148-2.151h8.202v62.578h-70.703v-62.578h20.703c1.173.131 1.888.85 2.148 2.151-.131 1.173-.847 1.891-2.148 2.151h-16.6zm51.366-27.769l2.931-2.934c.649-.651 1.496-1.238 2.539-1.76 3.515-1.564 6.574-.978 9.18 1.76.518.522 1.04 1.242 1.562 2.151 1.823 3.52 1.301 6.717-1.562 9.582l-14.65 14.668-22.461 22.488-.194.391-13.086 4.107-3.711 3.715c-.392.264-.914.46-1.563.587-.522 0-.976-.195-1.368-.587-.781-.909-.781-1.887 0-2.933l3.712-3.716 4.101-13.103 34.57-34.416zm7.423 10.169l-5.859-5.867-8.985 8.996 5.859 5.867 8.985-8.996zm-11.915 11.929l-5.858-5.867-19.337 19.36 5.861 5.867 19.334-19.36zm-29.101 23.271l5.859-1.76-4.101-4.107-1.758 5.867zm44.726-45.76c-1.824-1.434-3.583-1.301-5.272.391l-1.367 1.369 5.858 5.867 1.368-1.369.585-.587c1.301-1.956 1.104-3.715-.585-5.28-.132-.128-.328-.26-.587-.391z"/></svg>