<!DOCTYPE svg PUBLIC "-//W3C//DTD SVG 1.1//EN" "http://www.w3.org/Graphics/SVG/1.1/DTD/svg11.dtd" [
	<!ENTITY ns_flows "http://ns.adobe.com/Flows/1.0/">
]><svg xmlns="http://www.w3.org/2000/svg" width="100" height="100"><path fill="#616262" d="M66.731 81.323c0 1.168-.974 2.141-2.14 2.141h-29.182c-1.169 0-2.142-.973-2.142-2.141v-10.506c0-1.168.973-2.141 2.142-2.141h6.226v-20.817h-6.226c-1.169 0-2.142-.973-2.142-2.14v-10.505c0-1.167.973-2.14 2.142-2.14h20.817c1.166 0 2.139.973 2.139 2.14v33.269h6.227c1.166 0 2.14.973 2.14 2.139v10.701zm-8.366-58.366c0 1.167-.973 2.14-2.139 2.14h-12.452c-1.167 0-2.14-.973-2.14-2.14v-10.506c0-1.167.973-2.141 2.14-2.141h12.452c1.166 0 2.139.973 2.139 2.141v10.506zm41.635 27.043c0-27.626-22.373-50-50-50s-50 22.374-50 50c0 27.627 22.373 50 50 50s50-22.373 50-50z"/></svg>