<!DOCTYPE svg PUBLIC "-//W3C//DTD SVG 1.1//EN" "http://www.w3.org/Graphics/SVG/1.1/DTD/svg11.dtd" [
	<!ENTITY ns_flows "http://ns.adobe.com/Flows/1.0/">
]><svg xmlns="http://www.w3.org/2000/svg" width="19" height="19"><path fill-rule="evenodd" clip-rule="evenodd" fill="#3DA1C5" d="M16.725 19h-14.45c-1.256 0-2.275-1.013-2.275-2.262v-14.476c0-1.25 1.019-2.262 2.275-2.262h14.449c1.257 0 2.276 1.012 2.276 2.262v14.477c0 1.248-1.019 2.261-2.275 2.261zm1.285-16.428c0-.437-.154-.811-.463-1.119-.31-.31-.683-.464-1.12-.464h-13.855c-.437 0-.81.154-1.119.464-.31.309-.464.683-.464 1.119v13.854c0 .438.154.811.464 1.119.31.31.683.464 1.119.464h13.854c.438 0 .811-.154 1.12-.464.309-.309.463-.682.463-1.119v-13.854zM5.597 3.683l5.872 5.807-5.865 5.82-.063.14c0 .103.084.186.187.186h.001l.116-.04 7.543-5.959c.045-.036.071-.09.071-.146-.001-.057-.026-.11-.071-.146l-7.543-5.941c-.078-.061-.19-.051-.256.022-.066.075-.063.187.008.257z"/></svg>