<!DOCTYPE svg PUBLIC "-//W3C//DTD SVG 1.1//EN" "http://www.w3.org/Graphics/SVG/1.1/DTD/svg11.dtd" [
	<!ENTITY ns_flows "http://ns.adobe.com/Flows/1.0/">
]><svg xmlns="http://www.w3.org/2000/svg" width="100" height="100"><path fill-rule="evenodd" clip-rule="evenodd" fill="#fff" d="M79.122 45.833c-7.126 9.442-22.337 17.014-22.856 20.834-.33 2.441-1.567 8.9 0 12.499 2.469 5.665 8.313 8.334 8.313 8.334h10.389v10.417l-2.078 2.083h-45.744l-2.081-2.083v-10.417h10.403s5.854-2.669 8.324-8.334c1.569-3.599.333-10.058 0-12.499-.521-3.82-15.75-11.392-22.887-20.834-22.624-2.457-21.002-25.238-20.807-35.417.172-.778.85-2.083 1.951-2.083h8.452v-6.251c0-.433 1.213-2.082 2.211-2.082h74.59299999999999c.996 0 2.208 1.649 2.208 2.082v6.251h8.441c1.099 0 1.775 1.306 1.947 2.083.196 10.179 1.818 32.96-20.779 35.417zm-68.621-33.334c-3.555.044-6.242 0-6.242 0s-.173 7.118 0 12.5c2.45 12.586 12.484 16.667 12.484 16.667s-6.068-15.278-6.242-29.167zm74.856-8.334h-70.695s-.156 14.272 0 14.585c.172 3.292 1.826 12.744 8.323 22.916 6.103 9.557 16.68 14.032 21.871 19.629-1.723-1.859 3.399.505 3.096 13.707-.389 16.953-18.725 16.666-18.725 16.666v4.167h41.584v-4.167s-18.313.287-18.701-16.666c-.304-13.202 4.813-15.566 3.093-13.707 5.184-5.598 15.748-10.072 21.842-19.629 6.488-10.171 8.143-19.624 8.313-22.916.155-.313-.001-14.585-.001-14.585zm10.389 8.334s-2.684.044-6.233 0c-.174 13.889-6.233 29.167-6.233 29.167s10.021-4.08 12.467-16.667c.173-5.382-.001-12.5-.001-12.5zm-35.31 27.083l-10.402-6.249-10.404 6.249 2.08-10.416-6.242-8.333h8.324l6.242-8.334 6.242 8.334h8.321l-6.242 8.333 2.081 10.416zm-10.402-20.832l-2.713 4.525-3.529 1.724 2.079 6.251 4.163-2.084 4.16 2.084 2.082-6.251-2.849-1.724-3.393-4.525z"/></svg>