<!DOCTYPE svg PUBLIC "-//W3C//DTD SVG 1.1//EN" "http://www.w3.org/Graphics/SVG/1.1/DTD/svg11.dtd" [
	<!ENTITY ns_flows "http://ns.adobe.com/Flows/1.0/">
]><svg xmlns="http://www.w3.org/2000/svg" width="100" height="100"><path fill="#fff" d="M50 100c-27.625 0-50-22.375-50-50s22.375-50 50-50 50 22.375 50 50-22.375 50-50 50zm0-97.5c-26.25 0-47.5 21.25-47.5 47.5s21.25 47.5 47.5 47.5 47.5-21.25 47.5-47.5-21.25-47.5-47.5-47.5zM76.294 25.759c1.935.892 2.903 2.418 2.903 4.576v35.269c0 .596-.113 1.228-.335 1.896-.82 2.084-2.308 3.125-4.466 3.125h-22.543v2.344h15.402c.67.076 1.077.484 1.227 1.229-.074.668-.483 1.078-1.227 1.228h-33.26c-.669-.073-1.079-.483-1.227-1.228.073-.671.483-1.078 1.227-1.229h15.402v-2.344h-22.544c-.597 0-1.191-.112-1.785-.334-2.01-.895-3.014-2.457-3.014-4.688v-35.268c0-.669.111-1.301.334-1.897.818-2.009 2.305-3.013 4.464-3.013h47.544c.596-.001 1.229.111 1.898.334zm-51.897 4.576v28.348h52.456v-28.348c-.299-1.34-1.116-2.194-2.457-2.567h-47.543c-1.267.298-2.084 1.154-2.456 2.567zm50.67 37.834c1.188-.371 1.786-1.227 1.786-2.565v-4.466h-52.456v4.466c0 .222.037.446.111.668.296 1.341 1.078 2.01 2.344 2.01h47.544c.15-.001.372-.038.671-.113zm-24.442-5.914c-.15 0-.335.038-.558.11-1.191.224-1.786 1.005-1.786 2.344 0 .15.037.335.112.56.223 1.19.966 1.784 2.232 1.784.148 0 .335-.036.558-.11 1.19-.224 1.786-.966 1.786-2.233-.299-1.265-1.08-2.083-2.344-2.455z"/></svg>