<!DOCTYPE svg PUBLIC "-//W3C//DTD SVG 1.1//EN" "http://www.w3.org/Graphics/SVG/1.1/DTD/svg11.dtd" [
	<!ENTITY ns_flows "http://ns.adobe.com/Flows/1.0/">
]><svg xmlns="http://www.w3.org/2000/svg" width="100" height="100"><path fill="#fff" d="M50 100c-27.625 0-50-22.375-50-50s22.375-50 50-50 50 22.375 50 50-22.375 50-50 50zm0-97.5c-26.25 0-47.5 21.25-47.5 47.5s21.25 47.5 47.5 47.5 47.5-21.25 47.5-47.5-21.25-47.5-47.5-47.5zM66.25 22.433c2.305 1.117 3.459 2.902 3.459 5.358v45.313c0 .818-.186 1.673-.558 2.565-1.115 2.232-2.94 3.35-5.469 3.35h-26.115c-.893 0-1.75-.186-2.567-.56-2.307-1.115-3.46-2.901-3.46-5.355v-45.313c0-.893.185-1.748.559-2.567 1.115-2.232 2.938-3.349 5.469-3.349h26.115c.892 0 1.747.187 2.567.558zm-32.255 44.642h33.26v-33.258h-33.26v33.258zm2.344-42.633c-1.563.596-2.344 1.712-2.344 3.348v3.571h33.26v-3.571c0-.372-.075-.781-.224-1.228-.596-1.563-1.713-2.344-3.349-2.344h-26.115c-.447.001-.856.076-1.228.224zm28.572 52.008c1.563-.593 2.344-1.71 2.344-3.347v-3.572h-33.26v3.572c0 .373.073.781.224 1.228.595 1.563 1.711 2.344 3.349 2.344h26.115c.447 0 .854-.073 1.228-.225zm-14.286-5.804c-.15 0-.335.039-.558.113-1.191.222-1.786 1.003-1.786 2.344 0 .148.037.334.112.558.223 1.19.966 1.786 2.232 1.786.148 0 .335-.037.558-.113 1.19-.222 1.786-.965 1.786-2.23-.299-1.266-1.08-2.083-2.344-2.458zm-7.143-42.855c.073-.595.483-.966 1.228-1.116h11.83c.67.075 1.077.446 1.228 1.116-.074.669-.484 1.079-1.228 1.228h-11.83c-.67-.074-1.08-.484-1.228-1.228z"/></svg>