<!DOCTYPE svg PUBLIC "-//W3C//DTD SVG 1.1//EN" "http://www.w3.org/Graphics/SVG/1.1/DTD/svg11.dtd" [
	<!ENTITY ns_flows "http://ns.adobe.com/Flows/1.0/">
]><svg xmlns="http://www.w3.org/2000/svg" width="100" height="100"><path fill="#fff" d="M50 100c-27.625 0-50-22.375-50-50s22.375-50 50-50 50 22.375 50 50-22.375 50-50 50zm0-97.5c-26.25 0-47.5 21.25-47.5 47.5s21.25 47.5 47.5 47.5 47.5-21.25 47.5-47.5-21.25-47.5-47.5-47.5zM74.691 28.333c2.229 1.115 3.345 2.899 3.345 5.354v33.35c0 .892-.187 1.748-.558 2.564-1.115 2.23-2.898 3.347-5.351 3.347h-45.257c-.891 0-1.747-.185-2.563-.559-2.229-1.114-3.344-2.898-3.344-5.353v-33.35c0-.893.185-1.747.557-2.565 1.115-2.231 2.898-3.346 5.351-3.346h45.258c.89-.001 1.743.186 2.562.558zm-49.046 2.007c-1.562.597-2.341 1.711-2.341 3.346v6.023h52.391v-6.023c0-.371-.074-.781-.224-1.227-.596-1.562-1.71-2.342-3.343-2.342h-45.258c-.372 0-.78.074-1.225.223zm47.709 40.041c1.561-.594 2.341-1.709 2.341-3.345v-24.985h-52.392v24.985c0 .372.073.78.223 1.226.594 1.563 1.708 2.343 3.344 2.343h45.258c.371-.001.78-.074 1.226-.224zm-40.576-36.026c-.224-1.189-1.003-1.785-2.341-1.785-.149 0-.334.038-.557.111-1.19.224-1.784.968-1.784 2.231 0 .15.037.335.111.558.224 1.19.964 1.784 2.229 1.784 1.263-.296 2.08-1.077 2.453-2.342.001-.147-.037-.334-.111-.557zm7.134 0c-.222-1.189-1.003-1.785-2.34-1.785-.15 0-.335.038-.558.111-1.189.224-1.784.968-1.784 2.231 0 .15.037.335.111.558.224 1.19.966 1.784 2.23 1.784 1.262-.296 2.079-1.077 2.452-2.342.001-.147-.038-.334-.111-.557zm7.135 0c-.223-1.189-1.003-1.785-2.341-1.785-.15 0-.335.038-.558.111-1.189.224-1.784.968-1.784 2.231 0 .15.037.335.112.558.223 1.19.965 1.784 2.229 1.784 1.262-.296 2.08-1.077 2.452-2.342.001-.147-.038-.334-.11-.557z"/></svg>