<!DOCTYPE svg PUBLIC "-//W3C//DTD SVG 1.1//EN" "http://www.w3.org/Graphics/SVG/1.1/DTD/svg11.dtd" [
	<!ENTITY ns_flows "http://ns.adobe.com/Flows/1.0/">
]><svg xmlns="http://www.w3.org/2000/svg" width="100" height="100"><path fill="#fff" d="M50 100c-27.625 0-50-22.375-50-50s22.375-50 50-50 50 22.375 50 50-22.375 50-50 50zm0-97.5c-26.25 0-47.5 21.25-47.5 47.5s21.25 47.5 47.5 47.5 47.5-21.25 47.5-47.5-21.25-47.5-47.5-47.5zM73.146 23.103v54.688c-.074.668-.446 1.078-1.115 1.228h-16.74c-.598-.073-.969-.483-1.117-1.228v-54.688c.073-.67.446-1.078 1.117-1.228h16.74c.595.075.966.484 1.115 1.228zm-2.343 1.116h-14.285v7.143h4.8v2.456h-4.8v4.688h4.8v2.455h-4.8v4.688h4.8v2.456h-4.8v4.688h4.8v2.454h-4.8v4.688h4.8v2.455h-4.8v4.688h4.8v2.456h-4.8v7.144h14.285v-52.459zm-26.339 11.272c.073.149.111.373.111.67v34.485c0 .895-.186 1.75-.558 2.567-1.116 2.308-2.902 3.461-5.356 3.461h-4.8c-.893 0-1.75-.186-2.567-.56-2.231-1.115-3.347-2.938-3.347-5.469v-34.484c0-.148.073-.372.222-.67l7.144-10.715.224-.223c.742-.52 1.339-.447 1.786.223l7.141 10.715zm-9.375 5.915v20.981h2.344v-20.981c-.223-.148-.597-.446-1.115-.893-.375.299-.782.596-1.229.893zm-2.344.67c-.819 0-1.637-.223-2.455-.669v20.981h2.455v-20.312zm-2.454 24.999h11.941v-2.344h-11.941v2.344zm11.94-4.687v-20.982c-.669.374-1.45.596-2.344.669v20.312h2.344zm-7.7-32.143h3.459l-1.673-2.678-1.786 2.678zm-4.24 7.143c0 .15.037.298.111.447.297 1.266 1.078 1.897 2.344 1.897.224 0 .447-.037.67-.112 1.116-.371 1.673-1.115 1.673-2.232.073-.669.483-1.077 1.229-1.227.594.075.965.484 1.115 1.227 0 .15.037.298.111.447.297 1.266 1.078 1.897 2.344 1.897.224 0 .447-.037.67-.112 1.116-.371 1.674-1.115 1.674-2.232v-.893l-2.566-3.906h-6.697l-2.678 3.906v.893zm9.485 36.718c1.636-.519 2.455-1.674 2.455-3.46v-1.115h-11.94v1.115c0 .374.073.781.222 1.229.596 1.563 1.711 2.344 3.349 2.344h4.8c.296 0 .668-.037 1.114-.113z"/></svg>