<!DOCTYPE svg PUBLIC "-//W3C//DTD SVG 1.1//EN" "http://www.w3.org/Graphics/SVG/1.1/DTD/svg11.dtd" [
	<!ENTITY ns_flows "http://ns.adobe.com/Flows/1.0/">
]><svg xmlns="http://www.w3.org/2000/svg" width="100" height="100" viewBox="0.05 -0.05 100 100" enable-background="new 0.05 -0.05 100 100"><path fill="#fff" d="M97.782 41.775h-13.493l-15.896 16.267c-.37.184-.925.368-1.48.554l-.184-.186h-.555c-.74-.368-1.11-1.108-1.11-2.033v-14.602h-6.653c-1.108-.185-1.849-.739-2.219-2.034.187-1.109.925-1.848 2.219-2.218h8.134c1.108.185 1.849.924 2.217 2.218v11.461l13.125-13.124c.37-.185.924-.37 1.479-.555h12.568v-33.272h-58.226v14.603c-.184 1.108-.924 1.849-2.218 2.218-1.109-.185-1.663-.924-2.033-2.218v-16.636c.185-1.109.739-1.848 2.033-2.218h62.292c1.11.185 1.849.924 2.219 2.218v37.523c-.185 1.11-.925 1.664-2.219 2.034zm-41.22-29.021c.37-1.293 1.108-1.849 2.402-2.034 1.479.37 2.219.924 2.403 2.034-.368 1.294-1.108 2.218-2.403 2.218-1.477-.185-2.217-.924-2.402-2.218zm14.604 0c.368-1.293 1.108-1.849 2.402-2.034 1.295.37 2.033.924 2.033 2.034-.37 1.294-.925 2.218-2.033 2.218-1.479-.185-2.402-.924-2.402-2.218zm8.501 7.024c0 7.394-6.285 13.308-14.047 13.308-7.764 0-14.05-5.915-14.05-13.308h3.883c0 5.36 4.621 9.611 10.167 9.611 5.545 0 10.166-4.251 10.166-9.611h3.881zm-28.28 30.5c-.186 7.578-2.773 13.493-7.764 17.744v7.024l15.158 5.545 1.108.556c4.437 2.218 6.655 5.73 6.655 10.722v8.131h-66.544v-8.132c0-.37 0-.924.185-1.479.554-4.807 3.143-8.135 7.764-9.799l14.971-5.545v-6.47c-5.545-4.065-8.502-10.166-8.502-18.298 0-4.252 1.108-8.318 3.142-12.015 3.697-6.47 8.688-9.798 15.343-9.798 3.512 0 6.838 1.109 9.796 3.512 5.915 4.253 8.688 10.353 8.688 18.302zm-41.775 34.197c-3.328 1.479-5.176 3.881-5.176 7.394v4.067h58.225v-4.067c-.184-3.513-1.849-5.915-4.991-7.394l-17.929-6.471v-7.394c-2.033 1.108-4.251 1.479-6.469 1.479s-4.251-.37-5.915-1.108v7.023l-17.745 6.471zm9.057-34.197c0 3.327.739 6.284 2.219 9.426 2.772 5.545 7.023 8.317 12.199 8.317 2.403 0 4.621-.738 6.839-2.218 4.806-3.327 7.209-8.318 7.394-14.972h-1.109c-.554.185-.924.185-1.109.185-3.697-.185-7.023-1.848-9.611-5.176-3.328 3.143-7.394 4.806-12.2 4.806-1.479 0-3.143-.185-4.436-.554l-.186.186zm14.418-17.561c-1.293 0-2.588.184-4.066.74-4.991 1.848-8.318 5.915-9.981 12.569 1.293.37 2.587.555 4.066.555.555 0 1.479 0 2.404-.185 4.251-.924 6.838-2.588 8.133-4.991l1.663-3.327 2.034 3.327c2.217 4.067 5.545 5.73 9.796 5.176-.369-1.665-.924-3.513-1.664-5.176-2.958-5.731-7.024-8.688-12.385-8.688z"/></svg>