<!DOCTYPE svg PUBLIC "-//W3C//DTD SVG 1.1//EN" "http://www.w3.org/Graphics/SVG/1.1/DTD/svg11.dtd" [
	<!ENTITY ns_flows "http://ns.adobe.com/Flows/1.0/">
]><svg xmlns="http://www.w3.org/2000/svg" width="100" height="100"><path fill="#fff" d="M88.021 100h-76.042c-6.562 0-11.979-5.312-11.979-11.875v-76.25c0-6.562 5.312-11.875 11.979-11.875h76.042c6.562 0 11.979 5.313 11.979 11.875v76.146c0 6.667-5.312 11.979-11.979 11.979zm6.771-86.458c0-4.583-3.75-8.333-8.334-8.333h-72.916c-2.292 0-4.27.833-5.938 2.396-1.667 1.667-2.396 3.542-2.396 5.938v72.917c0 2.292.833 4.271 2.396 5.938 1.667 1.666 3.542 2.396 5.938 2.396h72.917c4.584 0 8.334-3.75 8.334-8.334v-72.918zm-23.959 67.812c0 .521-.417.938-.938.938-.208 0-.416-.104-.625-.209l-39.686-31.354c-.209-.208-.417-.417-.417-.729s.104-.625.417-.729l39.687-31.25c.417-.312 1.042-.312 1.354.104s.313.938 0 1.354l-30.938 30.521 30.834 30.625c.208.104.312.416.312.729z"/></svg>