<!DOCTYPE svg PUBLIC "-//W3C//DTD SVG 1.1//EN" "http://www.w3.org/Graphics/SVG/1.1/DTD/svg11.dtd" [
	<!ENTITY ns_flows "http://ns.adobe.com/Flows/1.0/">
]><svg xmlns="http://www.w3.org/2000/svg" width="100" height="100"><path fill="#fff" d="M11.979 0h76.042c6.562 0 11.979 5.313 11.979 11.875v76.25c0 6.563-5.312 11.875-11.979 11.875h-76.042c-6.562 0-11.979-5.312-11.979-11.875v-76.146c0-6.666 5.313-11.979 11.979-11.979zm-6.771 86.458c0 4.583 3.75 8.333 8.334 8.333h72.917c2.291 0 4.27-.832 5.938-2.395 1.666-1.667 2.395-3.543 2.395-5.938l.001-72.917c0-2.292-.833-4.271-2.396-5.938-1.668-1.666-3.542-2.396-5.938-2.396h-72.917c-4.584 0-8.334 3.75-8.334 8.334v72.917zm23.959-67.812c0-.521.417-.938.938-.938.208 0 .416.104.625.209l39.687 31.354c.209.208.418.417.418.729s-.104.625-.418.729l-39.687 31.25c-.417.312-1.042.312-1.354-.104-.313-.417-.313-.938 0-1.354l30.937-30.521-30.834-30.625c-.208-.104-.312-.416-.312-.729z"/></svg>