<!DOCTYPE svg PUBLIC "-//W3C//DTD SVG 1.1//EN" "http://www.w3.org/Graphics/SVG/1.1/DTD/svg11.dtd" [
	<!ENTITY ns_flows "http://ns.adobe.com/Flows/1.0/">
]><svg xmlns="http://www.w3.org/2000/svg" width="100" height="400"><path fill="#EB5F52" d="M50 400c-27.693 0-50-22.308-50-50 0-27.693 22.307-50 50-50s50 22.307 50 50c0 27.692-22.307 50-50 50zm-4.616-75c-1.923 0-3.846.383-5.769.77-5.77 1.153-10.384 6.539-10.384 12.691 0 6.539 5.384 11.155 11.539 11.155h2.308c-.385 1.153-.77 1.536-.77 2.689 0 1.923 1.153 3.463 1.923 4.616-5.77 0-14.615 1.54-17.308 7.31-.77 1.536-1.153 2.692-1.153 4.229 0 7.309 8.46 10.002 14.615 10.002 4.616 0 9.615-1.157 13.461-4.233 2.693-2.306 4.616-5.382 4.616-9.229 0-8.849-9.615-10.772-9.615-14.618 0-4.229 6.923-4.999 6.923-13.462 0-3.459-1.54-7.305-4.616-9.615h4.232l4.229-2.689-14.231.384zm32.692 8.075h-8.075v-8.075h-4.233v8.075h-8.075v4.233h8.075v8.075h4.233v-8.075h8.075v-4.233zm-34.615 14.232c-5.77 0-8.846-7.692-8.846-12.691 0-3.847 1.923-7.692 6.154-7.692 5.77 0 8.46 8.075 8.46 13.078.001 4.228-1.537 7.305-5.768 7.305zm2.308 11.155c3.078 2.307 7.307 4.616 7.307 9.229 0 5.77-5.384 7.692-9.999 7.692-5.001 0-11.923-2.307-11.923-8.459 0-6.539 7.692-8.462 13.077-8.462h1.538z"/><path fill="#E84B89" d="M50 300c-27.693 0-50-22.307-50-50 0-27.692 22.307-50 50-50s50 22.308 50 50c0 27.693-22.307 50-50 50zm-.385-75c-13.462 0-24.23 11.155-24.23 24.617s10.769 24.613 24.23 24.613c13.463 0 24.231-11.151 24.231-24.613.001-13.848-10.768-24.617-24.231-24.617zm11.54 41.925c-.387-1.157-1.157-7.31-4.233-15.002 6.54-1.152 12.309.771 13.079.771-.771 6.152-3.847 11.151-8.846 14.231zm-5.003-18.078l-.383-1.152c-.384-1.157-.771-1.924-1.54-3.08 8.079-3.459 11.538-8.459 11.538-8.459 3.08 3.46 4.616 8.076 4.616 13.075.001-.001-7.305-1.537-14.231-.384zm-3.459-7.309c-3.463-6.539-7.31-11.922-7.692-12.309 1.538-.383 3.076-.767 4.999-.767 5.386 0 9.998 1.924 13.845 5.383-.383.001-3.459 4.617-11.152 7.693zm-23.462 3.846c1.538-6.539 5.77-11.921 11.539-14.614.385.383 4.231 5.77 7.692 12.309-10.001 2.305-18.463 2.305-19.231 2.305zm21.154.387c.769 1.153 1.153 2.307 1.538 3.46-.385 0-.385 0-.77.387 0 0-11.154 3.846-16.923 13.845-3.461-3.847-5.384-8.846-5.384-14.231v-.771c.385.386 10.769.769 21.539-2.69zm3.076 7.305c3.078 7.692 4.231 14.231 4.614 16.155-2.689 1.152-5.382 1.539-8.075 1.539-4.999 0-9.23-1.539-12.691-4.615 3.846-8.845 16.152-13.079 16.152-13.079z"/><path fill="#5A7DA3" d="M50 200c-27.693 0-50-22.307-50-50s22.307-50 50-50 50 22.307 50 50-22.307 50-50 50zm26.153-53.461c3.846-5.001 5.386-8.077 4.999-9.23 0 0-.383-1.155-3.076-.77h-10.386s-.383.385-.766 1.153c-1.54 3.846-3.463 7.309-3.463 7.309-4.229 6.922-5.77 7.307-6.54 6.922-1.536-1.153-1.152-3.846-1.152-6.154 0-6.537 1.152-9.615-1.924-10.383-1.152-.386-1.922-.386-4.23-.386-3.461 0-6.154 0-7.692.768-1.153.385-1.923 1.54-1.538 1.54.77 0 1.923.383 2.693 1.538 0 0 .768 1.153.768 4.231.385 7.692-1.153 8.845-1.153 8.845-1.155.77-3.461-.385-6.54-6.922 0 0-1.923-3.078-3.461-6.924-.385-.768-.77-1.153-.77-1.153s-.383-.385-1.538-.385h-8.845c-1.155 0-1.923.77-1.923.77s-.385.383 0 1.538c6.922 15.77 14.615 23.845 14.615 23.845s7.307 7.309 15.385 6.924h3.846c1.155 0 1.538-.77 1.538-.77s.387-.385.387-1.538c0-5 2.307-5.77 2.307-5.77 2.306-.77 4.999 4.616 8.075 6.922 0 0 2.311 1.54 4.233 1.155h8.075c4.233 0 2.31-3.461 2.31-3.461 0-.385-1.156-2.308-6.155-6.924-5.002-5.383-4.618-4.613 1.921-12.69z"/><path fill="#5268AF" d="M50 100c-27.693 0-50-22.307-50-50s22.307-50 50-50 50 22.307 50 50-22.307 50-50 50zm7.31-66.538h4.612v-9.232h-7.306c-8.462 0-11.539 4.616-11.539 11.923v5.384h-5.386v9.232h5.386v26.538h10.768v-26.537h7.31l.767-9.232h-8.076v-4.614c0-2.309.383-3.462 3.464-3.462z"/></svg>