<!DOCTYPE svg PUBLIC "-//W3C//DTD SVG 1.1//EN" "http://www.w3.org/Graphics/SVG/1.1/DTD/svg11.dtd" [
	<!ENTITY ns_flows "http://ns.adobe.com/Flows/1.0/">
]><svg xmlns="http://www.w3.org/2000/svg" width="100" height="100" viewBox="0 -6.093 100 100" enable-background="new 0 -6.093 100 100"><path fill-rule="evenodd" clip-rule="evenodd" fill="#10B6EB" d="M96.875 66.938h-93.749c-1.722 0-3.126 1.506-3.126 3.348v14.311c0 1.773 1.404 3.217 3.126 3.217h93.749c1.723 0 3.125-1.443 3.125-3.217v-14.311c0-1.842-1.402-3.348-3.125-3.348zm0-33.469h-93.749c-1.722 0-3.126 1.503-3.126 3.347v14.313c0 1.771 1.404 3.215 3.126 3.215h93.749c1.723 0 3.125-1.443 3.125-3.215v-14.313c0-1.844-1.402-3.347-3.125-3.347zm0-33.469h-93.749c-1.722 0-3.126 1.506-3.126 3.349v14.311c0 1.774 1.404 3.219 3.126 3.219h93.749c1.723 0 3.125-1.444 3.125-3.219v-14.311c0-1.843-1.402-3.349-3.125-3.349z"/></svg>