<?xml version="1.0" encoding="utf-8"?>
<!-- Generator: Adobe Illustrator 15.1.0, SVG Export Plug-In  -->
<!DOCTYPE svg PUBLIC "-//W3C//DTD SVG 1.1//EN" "http://www.w3.org/Graphics/SVG/1.1/DTD/svg11.dtd" [
	<!ENTITY ns_flows "http://ns.adobe.com/Flows/1.0/">
]>
<svg version="1.1"
	 xmlns="http://www.w3.org/2000/svg" xmlns:xlink="http://www.w3.org/1999/xlink" xmlns:a="http://ns.adobe.com/AdobeSVGViewerExtensions/3.0/"
	 x="0px" y="0px" width="400px" height="400px" viewBox="0 0 400 400" enable-background="new 0 0 400 400" xml:space="preserve">
<defs>
</defs>
<path fill="#616262" d="M200,400C89.5,400,0,310.499,0,200C0,89.5,89.5,0,200,0c110.499,0,200,89.5,200,200
	C400,310.499,310.499,400,200,400z M200,10C95,10,10,95,10,200s85,190,190,190s190-85,190-190S305,10,200,10z M297.5,280h-90v9.501
	h61.497c2.5,0.499,4.503,1.996,5,5c-0.497,2.5-1.996,4.496-5,5H136c-2.5-0.504-4.502-2.001-5-5c0.498-2.5,2-4.501,5-5h61.5V280h-90
	c-2.5,0-5-0.499-7-1.5c-8-3.5-12-10-12-18.999V118.999c0-2.5,0.498-5,1.5-7.5C93.5,103.5,98.999,99.5,108,99.5h189.999
	c2.5,0,5,0.5,7.5,1.5c7.5,3.5,11.502,9.5,11.502,18.5v140.999c0,2.5-0.504,5-1.502,7.5C312.001,276,306,280,297.5,280z
	 M307.5,118.999c-1.003-5.498-4.501-8.999-10-10.498h-190c-5,1-8.501,4.5-10,10.498V232.5h210V118.999z M307.5,242.001h-210V260
	c0,1,0,2.001,0.5,2.5c0.999,5.499,4.5,7.999,9.5,7.999h190c0.499,0,1.497,0,2.5-0.499c5-1.5,7.001-5,7.001-10.499L307.5,242.001
	L307.5,242.001z M204.501,265.499C203.5,266,202.999,266,202.5,266c-5,0-8-2.5-9-7.003c-0.5-0.998-0.5-1.497-0.5-1.996
	c0-5.504,2.5-8.501,7-9.501c1-0.499,1.497-0.499,2.001-0.499c7.999,0.499,8.999,5,9.496,10
	C212.001,261.497,209.501,264.501,204.501,265.499z"/>
</svg>
