<?xml version="1.0" encoding="utf-8"?>
<!-- Generator: Adobe Illustrator 15.1.0, SVG Export Plug-In  -->
<!DOCTYPE svg PUBLIC "-//W3C//DTD SVG 1.1//EN" "http://www.w3.org/Graphics/SVG/1.1/DTD/svg11.dtd" [
	<!ENTITY ns_flows "http://ns.adobe.com/Flows/1.0/">
]>
<svg version="1.1"
	 xmlns="http://www.w3.org/2000/svg" xmlns:xlink="http://www.w3.org/1999/xlink" xmlns:a="http://ns.adobe.com/AdobeSVGViewerExtensions/3.0/"
	 x="0px" y="0px" width="400px" height="400px" viewBox="0 0 400 400" enable-background="new 0 0 400 400" xml:space="preserve">
<defs>
</defs>
<path fill="#616262" d="M200,400C89.499,400,0,310.499,0,200C0,89.5,89.499,0,200,0c110.501,0,200,89.5,200,200
	C400,310.499,310.501,400,200,400z M200,10C95,10,10,95,10,200s85,190,190,190s190-85,190-190S305,10,200,10z M254.498,313.5
	H150.499c-3.5,0-6.999-0.501-10.499-2.003C131,307.001,126,300,126,290V108.5c0-3.5,0.499-7.002,2.001-10.5
	C132.5,88.999,140,84.5,150,84.5h104.498c3.504,0,7.002,0.5,10.502,1.999C274,91,279,98,279,108v181.501
	c0,3.498-0.5,6.499-2.002,10.499C271.998,308.997,265,313.5,254.498,313.5z M269,108.5c0-1.5-0.5-3-1.001-5
	c-2.497-6.5-6.999-9.502-13.501-9.502H150.499c-1.999,0-3.5,0.501-4.998,1.001C139,97.5,136,102,136,108.5V123h133V108.5L269,108.5z
	 M269,133H136v133h133V133z M269,275.499H136V290c0,1.497,0.499,2.999,0.998,5c2.5,6.497,7.001,9.501,13.5,9.501H255
	c1.998,0,3.5-0.504,5-1.001c6.5-2.5,9.498-7.003,9.498-13.5v-14.501H269z M204.498,298.997c-0.998,0.504-1.496,0.504-1.998,0.504
	c-5,0-8.001-2.5-9-7.001c-0.499-1.003-0.499-1.5-0.499-2.001c0-5.499,2.5-8.498,6.999-9.499c1-0.501,1.5-0.501,1.998-0.501
	c5,1.502,8.002,5,9.502,10C211.998,295,209.498,297.999,204.498,298.997z M179,103.999h47.5c2.5,0.501,4.5,2.002,5,4.502
	c-0.5,2.5-2.002,4.5-5,5H179c-2.5-0.5-4.501-2.002-5-5C174,106.499,176,105,179,103.999z"/>
</svg>
