<?xml version="1.0" encoding="utf-8"?>
<!-- Generator: Adobe Illustrator 15.1.0, SVG Export Plug-In  -->
<!DOCTYPE svg PUBLIC "-//W3C//DTD SVG 1.1//EN" "http://www.w3.org/Graphics/SVG/1.1/DTD/svg11.dtd" [
	<!ENTITY ns_flows "http://ns.adobe.com/Flows/1.0/">
]>
<svg version="1.1"
	 xmlns="http://www.w3.org/2000/svg" xmlns:xlink="http://www.w3.org/1999/xlink" xmlns:a="http://ns.adobe.com/AdobeSVGViewerExtensions/3.0/"
	 x="0px" y="0px" width="400px" height="400px" viewBox="0 0 400 400" enable-background="new 0 0 400 400" xml:space="preserve">
<defs>
</defs>
<path fill="#616262" d="M200,400C89.5,400,0,310.501,0,200C0,89.499,89.5,0,200,0s200,89.499,200,200C400,310.501,310.5,400,200,400
	z M200,10C95,10,10,95,10,200s85,190,190,190s190-85,190-190S305,10,200,10z M290.5,290.501h-181c-3.5,0-7-0.501-10.501-2.003
	C90,284,85.5,276.999,85.5,266.999V133.498c0-3.498,0.5-6.999,2-10.497c4.5-9.002,11.499-13.503,21.499-13.503H290
	c3.5,0,7,0.501,10.5,2.001c9,4.499,13.498,11.502,13.498,21.502v133.998c0,3.502-0.498,7.001-1.998,10.501
	C307.5,285.998,300.5,290.501,290.5,290.501z M305,133.498c0-1.5-0.5-2.999-1.002-5c-2.5-6.5-6.998-9.499-13.498-9.499h-181
	c-1.5,0-3.001,0.499-5,1c-6,2.5-9.5,6.999-9.5,13.498V157.5h209.5L305,133.498L305,133.498z M305,166.999H95.5v100
	c0,1.499,0.5,3.001,0.999,5c2.5,6.499,7.002,9.501,13.501,9.501h181c1.5,0,2.998-0.502,5-0.999c6-2.5,9.5-7.003,9.5-13.502
	L305,166.999L305,166.999z M276.498,258.498L257,239c-3.5,3.5-9,6-17,6c-14,0-25-11-25-25c0-14.002,11-25,25-25
	c13.998,0,25,10.998,25,25c0,1.5-0.5,5.499-2.5,10c0,0.501,21,21.5,21,21.5L276.498,258.498z M240,204c-9,0-16.002,6.998-16.002,16
	c0,9,7.002,15.998,16.002,15.998c8.998,0,16-6.998,16-15.998C256,210.998,248.998,204,240,204z M123.5,214v17.5H205l10,8.5H115v-35
	h98l-8,8.498L123.5,214L123.5,214z M121.499,129.499C122.5,129,123,129,123.5,129c5.498,0,8.5,2.5,9.5,6.999
	c0.5,1,0.5,1.502,0.5,2.003c-1.5,5-5,7.997-10,9.499c-5,0-8-2.5-9-7.001c-0.501-1-0.501-1.5-0.501-2.001
	C114.5,133.498,117,130.499,121.499,129.499z M150,129.499c1-0.499,1.499-0.499,2-0.499c5.5,0,8.5,2.5,9.499,6.999
	c0.501,1,0.501,1.502,0.501,2.003c-1.5,5-5,7.997-10,9.499c-5,0-8.001-2.5-9-7.001c-0.5-1-0.5-1.5-0.5-2.001
	C143,133.498,145.5,130.499,150,129.499z M178.5,129.499c1-0.499,1.5-0.499,2-0.499c5.5,0,8.499,2.5,9.5,6.999
	c0.5,1,0.5,1.502,0.5,2.003c-1.501,5-5,7.997-10,9.499c-5,0-8-2.5-9.001-7.001c-0.498-1-0.498-1.5-0.498-2.001
	C171.499,133.498,173.999,130.499,178.5,129.499z"/>
</svg>
