<?xml version="1.0" encoding="utf-8"?>
<!-- Generator: Adobe Illustrator 15.1.0, SVG Export Plug-In  -->
<!DOCTYPE svg PUBLIC "-//W3C//DTD SVG 1.1//EN" "http://www.w3.org/Graphics/SVG/1.1/DTD/svg11.dtd" [
	<!ENTITY ns_flows "http://ns.adobe.com/Flows/1.0/">
]>
<svg version="1.1"
	 xmlns="http://www.w3.org/2000/svg" xmlns:xlink="http://www.w3.org/1999/xlink" xmlns:a="http://ns.adobe.com/AdobeSVGViewerExtensions/3.0/"
	 x="0px" y="0px" width="400px" height="400px" viewBox="0 0 400 400" enable-background="new 0 0 400 400" xml:space="preserve">
<defs>
</defs>
<path fill="#616262" d="M200,400C89.499,400,0,310.499,0,200C0,89.499,89.499,0,200,0c110.499,0,200,89.499,200,200
	C400,310.499,310.499,400,200,400z M200,10C95,10,10,95,10,200s85,190,190,190s190-85,190-190S305,10,200,10z M288.002,313.5H221
	c-2.5-0.503-4.002-2-4.5-5V89.499c0.498-2.5,2-4.499,4.5-5h67.002c2.5,0.501,3.996,2.001,4.498,5V308.5
	C292.5,311.5,291,312.997,288.002,313.5z M282.999,94.499H226v28.503h19v10h-19v18.997h19v10h-19V181h19v10h-19v19h19v10h-19v19h19
	v10h-19v18.999h19v10h-19V306.5h56.999V94.499z M154.499,304h-18.997c-3.503,0-7.001-0.5-10.501-1.997
	C116,297.5,111.5,290,111.5,280V141.999c0-0.499,0.499-1.5,1-2.5L141,96.5C141.5,96,141.5,96,141.999,95.501
	C145,93.5,147.5,93.5,149,96.5l28.5,42.999c0.501,0.501,0.501,1.502,0.501,2.5V280c0,3.5-0.501,7.001-2.001,10.497
	C171.5,299.501,164.499,304,154.499,304z M121,247.001h10v-81.5c-3.5,0-6.502-1.003-10-2.502V247.001z M145.499,107.999L138.5,118.5
	h14L145.499,107.999z M169,143.5L158.5,128.001H131.5L121,143.5v3.498c0,0.501,0,1.003,0.499,2.001c1,5,4.501,7.5,9.501,7.5
	c0.998,0,2.001,0,2.5-0.499c4.499-1.502,6.5-4.501,6.5-9.002c0.501-2.5,1.999-4.499,5-5c2.5,0.501,4,2.001,4.499,5
	c0,0.501,0,1.003,0.501,2.001c1,5,4.499,7.5,9.499,7.5c1.003,0,2.001,0,2.5-0.499c4.501-1.502,6.502-4.501,6.502-9.002L169,143.5
	L169,143.5z M140.501,162.999v84.002H150v-84.002c-1-0.499-2.5-1.999-4.501-3.5C144,160.499,141.999,161.999,140.501,162.999z
	 M169,162.999c-2.5,1.5-5.998,2.502-9.501,2.502v81.5H169V162.999z M169,256.5H121v9.5H169V256.5L169,256.5z M169,275.499H121V280
	c0,1.5,0.499,2.997,0.998,5c2.5,6.5,7.001,9.501,13.503,9.501h18.997c1.003,0,2.5,0,4.501-0.501c6.5-1.997,10-6.5,10-14V275.499z"/>
</svg>
