<?xml version="1.0" encoding="utf-8"?>
<!-- Generator: Adobe Illustrator 15.1.0, SVG Export Plug-In  -->
<!DOCTYPE svg PUBLIC "-//W3C//DTD SVG 1.1//EN" "http://www.w3.org/Graphics/SVG/1.1/DTD/svg11.dtd" [
	<!ENTITY ns_flows "http://ns.adobe.com/Flows/1.0/">
]>
<svg version="1.1"
	 xmlns="http://www.w3.org/2000/svg" xmlns:xlink="http://www.w3.org/1999/xlink" xmlns:a="http://ns.adobe.com/AdobeSVGViewerExtensions/3.0/"
	 x="0px" y="0px" width="176px" height="176px" viewBox="0 0 176 176" enable-background="new 0 0 176 176" xml:space="preserve">
<defs>
</defs>
<path fill="#FFFFFF" d="M88,176c-48.62,0-88-39.38-88-88S39.38,0,88,0s88,39.38,88,88S136.62,176,88,176z M88,4.4
	C41.8,4.4,4.4,41.8,4.4,88s37.4,83.6,83.6,83.6S171.6,134.2,171.6,88S134.2,4.4,88,4.4z M128.737,40.661v96.251
	c-0.131,1.176-0.785,1.897-1.963,2.161H97.313c-1.053-0.129-1.706-0.85-1.967-2.161V40.661c0.129-1.179,0.786-1.897,1.967-2.161
	h29.462C127.821,38.632,128.475,39.352,128.737,40.661z M124.613,42.625H99.472v12.572h8.448v4.323h-8.448v8.251h8.448v4.321h-8.448
	v8.251h8.448v4.322h-8.448v8.251h8.448v4.318h-8.448v8.251h8.448v4.321h-8.448v8.251h8.448v4.322h-8.448v12.574h25.142V42.625z
	 M78.256,62.464c0.129,0.262,0.196,0.657,0.196,1.179v60.693c0,1.575-0.327,3.08-0.982,4.518c-1.965,4.063-5.108,6.092-9.427,6.092
	h-8.448c-1.571,0-3.08-0.328-4.518-0.986c-3.926-1.962-5.891-5.171-5.891-9.625V63.644c0-0.26,0.129-0.655,0.391-1.179
	l12.574-18.859l0.395-0.392c1.305-0.916,2.356-0.788,3.143,0.392L78.256,62.464z M61.756,72.875v36.927h4.126V72.875
	c-0.393-0.261-1.051-0.786-1.963-1.572C63.259,71.829,62.543,72.352,61.756,72.875z M57.631,74.054
	c-1.442,0-2.881-0.393-4.321-1.177v36.926h4.321V74.054z M53.312,118.053h21.016v-4.126H53.312V118.053z M74.327,109.803V72.875
	c-1.178,0.657-2.553,1.048-4.125,1.177v35.75L74.327,109.803L74.327,109.803z M60.774,53.231h6.088l-2.944-4.714L60.774,53.231z
	 M53.312,65.803c0,0.264,0.065,0.524,0.195,0.786c0.523,2.229,1.897,3.339,4.126,3.339c0.394,0,0.786-0.065,1.179-0.197
	c1.964-0.653,2.944-1.963,2.944-3.928c0.129-1.178,0.85-1.896,2.163-2.16c1.046,0.131,1.699,0.852,1.963,2.16
	c0,0.264,0.065,0.524,0.195,0.786c0.522,2.229,1.897,3.339,4.126,3.339c0.394,0,0.787-0.065,1.179-0.197
	c1.963-0.653,2.946-1.963,2.946-3.928v-1.572l-4.516-6.875H58.026l-4.714,6.875V65.803L53.312,65.803z M70.005,130.427
	c2.88-0.914,4.321-2.946,4.321-6.09v-1.962H53.312v1.962c0,0.658,0.128,1.374,0.391,2.163c1.048,2.751,3.011,4.125,5.894,4.125
	h8.449C68.566,130.625,69.221,130.561,70.005,130.427z"/>
</svg>
